<?xml version="1.0" standalone="no"?>
<!DOCTYPE svg PUBLIC "-//W3C//DTD SVG 20010904//EN"
 "http://www.w3.org/TR/2001/REC-SVG-20010904/DTD/svg10.dtd">
<svg version="1.0" xmlns="http://www.w3.org/2000/svg"
 width="32.000000pt" height="32.000000pt" viewBox="0 0 32.000000 32.000000"
 preserveAspectRatio="xMidYMid meet">

<g transform="translate(0.000000,32.000000) scale(0.100000,-0.100000)"
fill="#000000" stroke="none">
<path d="M0 309 c0 -5 5 -7 10 -4 5 3 10 8 10 11 0 2 -4 4 -10 4 -5 0 -10 -5
-10 -11z"/>
<path d="M305 310 c3 -5 8 -10 11 -10 2 0 4 5 4 10 0 6 -5 10 -11 10 -5 0 -7
-4 -4 -10z"/>
<path d="M141 226 c-10 -12 -9 -15 6 -19 17 -4 17 -5 1 -6 -31 -2 -19 -21 12
-21 17 0 30 5 30 10 0 6 -4 10 -9 10 -5 0 -8 7 -7 16 1 22 -18 28 -33 10z"/>
<path d="M105 150 c-7 -11 27 -30 55 -30 28 0 62 19 55 30 -3 5 -16 5 -30 -2
-19 -8 -31 -8 -50 0 -14 7 -27 7 -30 2z"/>
<path d="M123 105 c2 -5 19 -10 37 -10 18 0 35 5 37 10 2 6 -15 10 -37 10 -22
0 -39 -4 -37 -10z"/>
<path d="M0 10 c0 -5 5 -10 11 -10 5 0 7 5 4 10 -3 6 -8 10 -11 10 -2 0 -4 -4
-4 -10z"/>
</g>
</svg>
